<svg width="27" height="27" viewBox="0 0 27 27" fill="none" xmlns="http://www.w3.org/2000/svg">
<circle cx="13.5" cy="13.5" r="13.5" fill="#E54787"/>
<path d="M19.8337 6.5H8.16699C7.50395 6.5 6.86807 6.76339 6.39923 7.23223C5.93038 7.70107 5.66699 8.33696 5.66699 9V21.5C5.66725 21.6477 5.70673 21.7926 5.78141 21.92C5.85609 22.0474 5.96327 22.1526 6.09199 22.225C6.21654 22.2956 6.35717 22.3329 6.50033 22.3333C6.6499 22.3333 6.7967 22.293 6.92533 22.2167L10.667 19.95C10.8053 19.8677 10.9645 19.8271 11.1253 19.8333H19.8337C20.4967 19.8333 21.1326 19.5699 21.6014 19.1011C22.0703 18.6323 22.3337 17.9964 22.3337 17.3333V9C22.3337 8.33696 22.0703 7.70107 21.6014 7.23223C21.1326 6.76339 20.4967 6.5 19.8337 6.5ZM10.667 14C10.5022 14 10.3411 13.9511 10.204 13.8596C10.067 13.768 9.96017 13.6378 9.89709 13.4856C9.83402 13.3333 9.81752 13.1657 9.84967 13.0041C9.88183 12.8424 9.96119 12.694 10.0777 12.5774C10.1943 12.4609 10.3428 12.3815 10.5044 12.3493C10.6661 12.3172 10.8336 12.3337 10.9859 12.3968C11.1382 12.4598 11.2683 12.5667 11.3599 12.7037C11.4515 12.8407 11.5003 13.0018 11.5003 13.1667C11.5003 13.3877 11.4125 13.5996 11.2562 13.7559C11.1 13.9122 10.888 14 10.667 14ZM14.0003 14C13.8355 14 13.6744 13.9511 13.5374 13.8596C13.4003 13.768 13.2935 13.6378 13.2304 13.4856C13.1674 13.3333 13.1509 13.1657 13.183 13.0041C13.2152 12.8424 13.2945 12.694 13.4111 12.5774C13.5276 12.4609 13.6761 12.3815 13.8378 12.3493C13.9994 12.3172 14.167 12.3337 14.3192 12.3968C14.4715 12.4598 14.6016 12.5667 14.6932 12.7037C14.7848 12.8407 14.8337 13.0018 14.8337 13.1667C14.8337 13.3877 14.7459 13.5996 14.5896 13.7559C14.4333 13.9122 14.2213 14 14.0003 14ZM17.3337 14C17.1688 14 17.0077 13.9511 16.8707 13.8596C16.7336 13.768 16.6268 13.6378 16.5638 13.4856C16.5007 13.3333 16.4842 13.1657 16.5163 13.0041C16.5485 12.8424 16.6279 12.694 16.7444 12.5774C16.8609 12.4609 17.0094 12.3815 17.1711 12.3493C17.3327 12.3172 17.5003 12.3337 17.6526 12.3968C17.8048 12.4598 17.935 12.5667 18.0266 12.7037C18.1181 12.8407 18.167 13.0018 18.167 13.1667C18.167 13.3877 18.0792 13.5996 17.9229 13.7559C17.7666 13.9122 17.5547 14 17.3337 14Z" fill="#231F20"/>
</svg>
