<svg width="27" height="27" viewBox="0 0 27 27" fill="none" xmlns="http://www.w3.org/2000/svg">
<circle cx="13.5" cy="13.5" r="13.5" fill="#E54787"/>
<path d="M18.5003 22.3333C15.0981 22.3289 11.8364 20.9754 9.43066 18.5696C7.0249 16.1638 5.6714 12.9022 5.66699 9.49993C5.66699 8.48327 6.07086 7.50825 6.78975 6.78936C7.50864 6.07047 8.48366 5.6666 9.50033 5.6666C9.71561 5.66496 9.93053 5.6845 10.142 5.72493C10.3464 5.75518 10.5474 5.80542 10.742 5.87493C10.8789 5.92296 11.0008 6.00588 11.0958 6.11549C11.1908 6.22511 11.2556 6.35762 11.2837 6.49993L12.4253 11.4999C12.4561 11.6357 12.4524 11.7769 12.4145 11.9108C12.3767 12.0448 12.3059 12.1671 12.2087 12.2666C12.1003 12.3833 12.092 12.3916 11.067 12.9249C11.8878 14.7256 13.328 16.1717 15.1253 16.9999C15.667 15.9666 15.6753 15.9583 15.792 15.8499C15.8915 15.7527 16.0138 15.6819 16.1478 15.644C16.2817 15.6062 16.4229 15.6025 16.5587 15.6333L21.5587 16.7749C21.6964 16.8069 21.8238 16.8734 21.9287 16.9681C22.0337 17.0629 22.1128 17.1828 22.1587 17.3166C22.229 17.5144 22.282 17.7179 22.317 17.9249C22.3505 18.1344 22.3673 18.3462 22.367 18.5583C22.3516 19.5706 21.9364 20.5357 21.212 21.243C20.4875 21.9502 19.5127 22.3422 18.5003 22.3333Z" fill="#231F20"/>
</svg>
